<svg xmlns="http://www.w3.org/2000/svg" viewBox="0 0 536.02 437"><defs><style>.cls-1{fill:#fff;stroke:#000;stroke-miterlimit:10;}</style></defs><title>Fichier 2</title><g id="Calque_2" data-name="Calque 2"><g id="Calque_1-2" data-name="Calque 1"><path class="cls-1" d="M260.91,113.61,89.68,261.41V420.93c0,8.6,6.65,15.57,14.86,15.57l104.08-.28c8.17-.05,14.78-7,14.78-15.58V327.49c0-8.6,6.65-15.58,14.86-15.58H297.7c8.21,0,14.86,7,14.86,15.58v93.09c0,8.6,6.61,15.59,14.82,15.62h0l104.05.3c8.2,0,14.86-7,14.86-15.57V261.3L275.12,113.61a10.93,10.93,0,0,0-14.21,0ZM531.4,214.07,453.76,147V12.18A11.42,11.42,0,0,0,442.61.5h-52a11.42,11.42,0,0,0-11.15,11.68V82.85L296.3,11.16a43,43,0,0,0-56.65,0L4.55,214.07a12.06,12.06,0,0,0-1.5,16.44h0l23.68,30.17a10.8,10.8,0,0,0,15.69,1.6h0L260.91,73.7a10.93,10.93,0,0,1,14.21,0L493.6,262.28a10.8,10.8,0,0,0,15.69-1.56h0L533,230.54a12.06,12.06,0,0,0-1.53-16.43l-.05,0Z"/></g></g></svg>